<?xml version="1.0" encoding="UTF-8" standalone="no"?>
<!-- Created with Inkscape (http://www.inkscape.org/) -->

<svg
   xmlns:dc="http://purl.org/dc/elements/1.1/"
   xmlns:cc="http://creativecommons.org/ns#"
   xmlns:rdf="http://www.w3.org/1999/02/22-rdf-syntax-ns#"
   xmlns:svg="http://www.w3.org/2000/svg"
   xmlns="http://www.w3.org/2000/svg"
   xmlns:sodipodi="http://sodipodi.sourceforge.net/DTD/sodipodi-0.dtd"
   xmlns:inkscape="http://www.inkscape.org/namespaces/inkscape"
   version="1.1"
   id="svg80"
   width="63.843712"
   height="54.270065"
   viewBox="0 0 63.843712 54.270065"
   sodipodi:docname="char-icon-1.svg"
   inkscape:version="0.92.4 (unknown)">

  <path
     d="m 2.0208292,51.556935 c -3.84642,-4.88993 -2.97053996,-6.6891 9.4274198,-19.365141 11.672413,-11.934216 13.033563,-14.32358 9.928573,-17.428571 -3.098209,-3.098208 -6.284036,-1.898704 -13.5258038,5.092633 -3.796523,3.665234 -6.90276896,6.013647 -6.90276896,5.218696 0,-1.934186 10.83606876,-12.524201 14.04320976,-13.724331 3.048605,-1.140804 8.317953,0.734417 9.307133,3.312159 1.83936,4.793305 0.72775,6.691627 -10.850343,18.529414 -6.7801158,6.932191 -11.4999998,12.564853 -11.4999998,13.723983 0,4.045702 6.025637,6.85038 8.7863458,4.089671 0.915129,-0.915129 0.814838,-1.59686 -0.438688,-2.98199 C 8.7717662,46.339301 9.0985722,45.751088 15.559561,38.549471 36.484492,15.225896 36.696502,14.949512 38.499972,8.6431741 l 1.73797,-6.077267 5.3605,-1.61571874 c 7.92832,-2.38969336 13.4762,-0.2822358 16.95219,6.43958574 3.1426,6.0771179 0.30325,14.5046389 -5.77384,17.1374269 -2.11324,0.915526 -4.62668,1.666163 -5.5854,1.668082 -0.95873,0.0019 -8.8579,6.363373 -17.55371,14.136564 C 18.452924,53.905504 17.729751,54.412817 15.367472,53.148564 13.477826,52.137255 12.634434,52.105609 11.728043,53.012 9.5364022,55.203641 4.2681632,54.413957 2.0208292,51.556935 Z m 30.6408628,-13.244604 9.21344,-8.270203 -4.21344,-4.01318 -4.21344,-4.013179 -5,5.382275 c -2.75,2.960251 -7.65644,8.41578 -10.903192,12.123399 l -5.903188,6.741124 2.847647,2.972304 2.847647,2.972303 3.055546,-2.81232 c 1.68054,-1.546776 7.20158,-6.533912 12.26898,-11.082523 z m 12.75396,-11.067798 c 0.32199,-0.520994 -1.43956,-2.972262 -3.91456,-5.447262 -4.37053,-4.37053 -6.32633,-4.617885 -5.06394,-0.640449 0.6404,2.017738 6.00983,7.034972 7.5288,7.034972 0.47535,0 1.12771,-0.426268 1.4497,-0.947261 z m 10.09147,-4.491967 c 1.85846,-1.377936 1.70939,-1.674991 -3.50028,-6.97526 -2.99277,-3.044817 -5.11851,-5.8589329 -4.72385,-6.2535899 0.39466,-0.394657 3.33816,1.8756939 6.54111,5.0452239 l 5.82355,5.762783 1.26471,-3.053299 c 3.01943,-7.2895309 -2.31404,-15.1005859 -10.29084,-15.0713169 -5.5025,0.02019 -7.53543,1.240926 -5.71647,3.432638 1.72418,2.077505 0.56865,3.233028 -1.50885,1.508852 -2.18487,-1.813277 -3.41237,0.210126 -3.43264,5.6583379 -0.0313,8.401192 9.44696,14.465884 15.54356,9.945631 z m 1.44113,-8.560772 c 0,-0.55 0.45,-1 1,-1 0.55,0 1,0.45 1,1 0,0.55 -0.45,1 -1,1 -0.55,0 -1,-0.45 -1,-1 z"
     id="path90"
     inkscape:connector-curvature="0" />
</svg>
