<?xml version="1.0" encoding="UTF-8" standalone="no"?>
<!-- Created with Inkscape (http://www.inkscape.org/) -->

<svg
   xmlns:dc="http://purl.org/dc/elements/1.1/"
   xmlns:cc="http://creativecommons.org/ns#"
   xmlns:rdf="http://www.w3.org/1999/02/22-rdf-syntax-ns#"
   xmlns:svg="http://www.w3.org/2000/svg"
   xmlns="http://www.w3.org/2000/svg"
   xmlns:sodipodi="http://sodipodi.sourceforge.net/DTD/sodipodi-0.dtd"
   xmlns:inkscape="http://www.inkscape.org/namespaces/inkscape"
   version="1.1"
   id="svg346"
   width="500"
   height="500"
   viewBox="0 0 500 500"
   sodipodi:docname="char-icon-4.svg"
   inkscape:version="0.92.4 (unknown)">
  <metadata
     id="metadata352">
    <rdf:RDF>
      <cc:Work
         rdf:about="">
        <dc:format>image/svg+xml</dc:format>
        <dc:type
           rdf:resource="http://purl.org/dc/dcmitype/StillImage" />
        <dc:title></dc:title>
      </cc:Work>
    </rdf:RDF>
  </metadata>
  <defs
     id="defs350" />
  <sodipodi:namedview
     pagecolor="#ffffff"
     bordercolor="#666666"
     borderopacity="1"
     objecttolerance="10"
     gridtolerance="10"
     guidetolerance="10"
     inkscape:pageopacity="0"
     inkscape:pageshadow="2"
     inkscape:window-width="1920"
     inkscape:window-height="1007"
     id="namedview348"
     showgrid="false"
     inkscape:zoom="0.472"
     inkscape:cx="1002.1186"
     inkscape:cy="237.28814"
     inkscape:window-x="0"
     inkscape:window-y="24"
     inkscape:window-maximized="1"
     inkscape:current-layer="svg346" />
  <path
     d="m 204,498.13178 c 0,-2.07652 -5.93616,-4.0457 -18.3976,-6.10299 -3.79367,-0.6263 -8.59823,-2.00634 -10.67679,-3.06674 -2.07856,-1.0604 -7.29964,-2.8902 -11.60241,-4.06623 -4.30276,-1.17602 -9.0433,-3.00193 -10.53452,-4.05757 -1.49123,-1.05565 -5.09123,-2.73884 -8,-3.74042 -2.90878,-1.00158 -7.51428,-3.23333 -10.23446,-4.95944 C 131.83404,470.41227 129.08906,469 128.45426,469 c -0.6348,0 -2.95233,-1.30257 -5.15007,-2.8946 -2.19773,-1.59204 -5.52775,-3.68654 -7.40004,-4.65445 -1.87228,-0.96792 -4.97915,-2.96822 -6.90415,-4.44512 -1.925,-1.47691 -7.96929,-6.01991 -13.43177,-10.09556 -23.26945,-17.36176 -53.46376,-52.56985 -64.03451,-74.66746 -1.38318,-2.89146 -3.59706,-6.94146 -4.91975,-9 C 25.29128,361.18426 23.64295,357.7 22.95102,355.5 c -0.69194,-2.2 -2.24997,-5.57716 -3.46231,-7.50481 -1.21233,-1.92765 -2.96184,-6.20265 -3.88779,-9.5 C 14.67496,335.19784 12.85227,330.025 11.55049,327 10.24871,323.975 8.67482,318.8 8.05295,315.5 5.16512,300.1754 3.84598,296 1.89228,296 0.06303,296 0,294.45099 0,249.5 0,204.29194 0.0534,203 1.92244,203 c 2.28145,0 3.2799,-2.74926 5.56631,-15.32703 0.88253,-4.85487 2.71388,-11.33532 4.06967,-14.401 1.35579,-3.06568 3.15962,-8.25429 4.0085,-11.53024 0.84889,-3.27596 2.57451,-7.59551 3.83473,-9.59901 1.26022,-2.00349 2.86032,-5.44272 3.55579,-7.64272 0.69547,-2.2 2.43972,-6.025 3.87612,-8.5 1.4364,-2.475 3.64901,-6.525 4.91691,-9 C 39.31358,112.23647 57.20678,88.703562 72.45592,73.464747 89.6871,56.245223 110.84526,40.150567 128,31.213285 c 3.025,-1.575965 7.075,-3.849179 9,-5.051587 1.925,-1.202407 5.29587,-2.67721 7.49083,-3.27734 2.19496,-0.60013 5.28407,-2.012013 6.8647,-3.137517 1.58063,-1.125505 6.30975,-3.057936 10.50917,-4.294292 4.19941,-1.236355 9.77894,-3.180603 12.39895,-4.320549 2.62001,-1.1399477 8.69501,-2.7933866 13.5,-3.6743097 C 200.89953,5.0494247 204,3.9770043 204,1.841712 204,0.079167 205.99883,0 250.5,0 296.02875,0 297,0.04097 297,1.961455 c 0,2.2166052 3.01005,3.2546869 16.12184,5.5599659 4.37065,0.768436 10.51873,2.5218841 13.6624,3.8965521 3.14367,1.374667 8.41576,3.236132 11.71576,4.136588 3.3,0.900457 7.62704,2.685425 9.61565,3.966595 1.9886,1.281171 5.41437,2.813748 7.61282,3.405728 2.19844,0.591979 5.71528,2.242268 7.81519,3.66731 2.09992,1.425041 6.09915,3.68192 8.88719,5.015286 7.2084,3.447393 17.67796,10.433675 34.1788,22.80734 20.89889,15.671679 51.89087,52.46457 61.94439,73.53882 1.43144,3.0006 3.47685,6.68337 4.54534,8.18393 1.06849,1.50056 2.61749,4.67052 3.44221,7.04436 0.82472,2.37384 2.79187,6.79107 4.37144,9.81607 1.57958,3.025 3.19494,7.075 3.5897,9 0.39476,1.925 2.00799,6.56077 3.58496,10.30171 1.57696,3.74094 3.5833,10.71594 4.45852,15.5 C 495.1329,201.9408 495.83111,204 498.03854,204 499.95873,204 500,204.96798 500,250 c 0,45.03202 -0.0413,46 -1.96146,46 -2.2057,0 -2.98588,2.22988 -5.59812,16.00048 -0.88083,4.64339 -2.66564,10.97079 -3.96624,14.06087 -1.3006,3.09009 -2.89544,7.82791 -3.54408,10.5285 -0.64865,2.70058 -2.29661,6.93515 -3.66214,9.41015 -1.36554,2.475 -3.34873,6.97443 -4.40709,9.99873 -1.05836,3.0243 -3.03503,7.17715 -4.39258,9.22856 -1.35756,2.0514 -2.46829,4.14426 -2.46829,4.65078 0,0.50652 -1.62099,3.32867 -3.60221,6.27144 -1.98121,2.94277 -4.2827,6.6652 -5.11441,8.27207 -3.89177,7.51893 -22.75228,31.19465 -33.21167,41.69082 -16.47843,16.53636 -43.7513,37.19876 -56.89221,43.10251 -2.37628,1.06758 -5.87872,2.99849 -7.78321,4.29091 -1.90449,1.29242 -4.91027,2.66133 -6.6795,3.04201 -1.76924,0.38069 -6.14179,2.18733 -9.71679,4.01476 -3.575,1.82742 -8.75,3.86779 -11.5,4.53413 -2.75,0.66635 -7.40273,2.26021 -10.3394,3.54192 -2.93668,1.28171 -9.23668,3.04329 -14,3.91463 C 297.06235,495.13222 295,495.83223 295,498.03854 295,499.95841 294.0353,500 249.5,500 205.73645,500 204,499.9287 204,498.13178 Z m 87,-20.00706 c 10.175,-1.76056 21.23867,-4.2774 24.58594,-5.59298 3.34726,-1.31557 8.97226,-3.13178 12.5,-4.036 3.52773,-0.90423 8.21406,-2.67824 10.41406,-3.94225 2.2,-1.264 5.125,-2.63386 6.5,-3.04412 5.87545,-1.75307 7.69504,-6.64435 4.2836,-11.51486 -1.63578,-2.3354 -6.39174,-10.79067 -14.05902,-24.99451 -5.78887,-10.72402 -10.01268,-18.45686 -23.3906,-42.82285 -2.01632,-3.67243 -5.21417,-9.60215 -7.10635,-13.17715 -13.10697,-24.76377 -12.49657,-24.32112 -26.65245,-19.32811 -7.18257,2.5334 -8.58584,2.6753 -27.07518,2.73779 -24.3428,0.0823 -27.28586,-0.54061 -47.5,-10.05326 -18.05435,-8.49627 -35.57001,-25.64547 -45.66593,-44.7105 -8.77988,-16.57986 -11.40159,-30.03422 -10.55082,-54.14592 0.45518,-12.90048 0.91921,-16.15507 3.31522,-23.25236 3.57835,-10.59955 3.00959,-12.61961 -4.71538,-16.74764 -3.08772,-1.65 -6.91208,-3.79399 -8.49856,-4.76442 -3.78471,-2.31505 -12.51237,-6.931 -19.38453,-10.25223 -3.025,-1.46194 -6.20731,-3.29094 -7.07179,-4.06443 -0.86449,-0.77349 -4.68949,-3.007 -8.5,-4.96335 -6.4659,-3.31966 -9.63192,-5.01832 -27.92821,-14.98433 -3.85,-2.0971 -9.7,-5.2014 -13,-6.89845 -3.3,-1.69705 -7.79197,-4.32018 -9.98214,-5.82917 -4.57146,-3.14966 -8.53437,-3.51653 -10.73285,-0.99362 -2.06613,2.37104 -8.21257,16.58295 -9.83903,22.75 -0.72527,2.75 -2.32225,7.48609 -3.54884,10.52465 -1.22659,3.03856 -3.88966,15.18856 -5.91795,27 -3.28381,19.12283 -3.68929,23.39239 -3.70151,38.97535 -0.0123,15.67763 0.37091,19.73142 3.67982,38.92814 2.03145,11.78547 4.76116,24.16047 6.06602,27.5 1.30485,3.33952 2.88007,8.09686 3.50048,10.57186 0.99372,3.9643 6.3252,16.82948 10.56747,25.5 5.16946,10.56552 14.56971,26.07503 20.30422,33.5 2.33629,3.025 6.10343,7.975 8.37142,11 5.04118,6.72383 25.52777,27.36453 31.82928,32.06872 2.52801,1.8872 7.22978,5.45628 10.44839,7.93128 7.98705,6.14178 17.86396,12.43919 24.37937,15.54402 2.98329,1.42164 6.49625,3.42811 7.80658,4.45882 1.31034,1.0307 4.71947,2.63823 7.57585,3.57227 2.85638,0.93404 6.99342,2.72838 9.19342,3.98742 2.2,1.25904 6.92394,3.03873 10.49764,3.95486 3.57371,0.91614 8.97371,2.69786 12,3.95938 3.0263,1.26152 11.57736,3.31686 19.00236,4.56742 7.425,1.25057 16.875,2.84543 21,3.54414 4.82839,0.81785 14.80239,1.17545 28,1.00389 17.77029,-0.231 22.9634,-0.69272 39,-3.4675 z m 83.41458,-32.09224 c 5.31865,-2.02215 27.56376,-20.03534 39.57316,-32.04474 12.41266,-12.41265 30.31499,-34.6555 32.41754,-40.27733 1.02713,-2.74636 0.8269,-3.16513 -3.24266,-6.78217 -2.38556,-2.12029 -7.56056,-5.48275 -11.5,-7.47213 -3.93944,-1.98938 -10.15754,-5.26834 -13.81799,-7.28658 -3.66046,-2.01824 -9.90303,-5.34763 -13.87237,-7.39864 -3.96935,-2.05101 -7.72443,-4.14717 -8.34463,-4.65814 -0.6202,-0.51096 -4.27763,-2.60126 -8.12763,-4.64511 -11.64284,-6.18085 -18.58213,-9.96516 -27.5,-14.99703 -16.69855,-9.42208 -19.36923,-10.62822 -22.26977,-10.0576 -3.44175,0.6771 -26.37001,23.30357 -27.27722,26.91819 -0.67201,2.67749 1.95756,9.62791 5.55273,14.67686 1.14361,1.60605 3.67579,5.97376 5.62707,9.70602 1.95128,3.73225 5.02624,9.48592 6.83326,12.78592 1.80701,3.3 4.95772,9.15 7.00157,13 2.04385,3.85 4.08341,7.45 4.53236,8 0.44895,0.55 2.492,4.15 4.54011,8 2.04812,3.85 5.43325,10.15 7.52252,14 2.08928,3.85 5.50987,10.35391 7.60132,14.45314 3.32862,6.52407 9.90818,15.04686 11.61611,15.04686 0.32436,0 1.73489,-0.43539 3.13452,-0.96752 z m 84.75668,-96.68747 C 460.17707,348.43477 461,347.25294 461,346.71872 c 0,-0.53422 1.33198,-3.59247 2.95995,-6.79611 1.62797,-3.20364 3.64795,-8.4799 4.48885,-11.72503 0.8409,-3.24512 2.6487,-8.87525 4.01734,-12.51138 1.40793,-3.74053 4.03139,-15.8544 6.04192,-27.89868 3.05405,-18.29558 3.55642,-23.60658 3.57434,-37.78752 0.0127,-10.04475 -0.56312,-20.02104 -1.47182,-25.5 -0.82096,-4.95 -2.42294,-14.625 -3.55994,-21.5 -1.13701,-6.875 -3.16308,-15.425 -4.50239,-19 -1.33931,-3.575 -3.18585,-9.2 -4.10343,-12.5 -0.91759,-3.3 -2.73726,-8.025 -4.04372,-10.5 -1.30646,-2.475 -3.07367,-6.525 -3.92713,-9 -0.85347,-2.475 -2.58968,-6.075 -3.85826,-8 -1.26858,-1.925 -3.28497,-5.525 -4.48086,-8 -2.77895,-5.75127 -9.37693,-15.97094 -15.13485,-23.44246 -2.475,-3.21158 -5.37976,-7.01336 -6.45503,-8.44839 C 416.27944,85.070602 383.28452,57.183202 364,47.865148 c -2.475,-1.19589 -6.075,-3.212276 -8,-4.480856 -1.925,-1.26858 -5.525,-3.004796 -8,-3.858259 -2.475,-0.853463 -6.525,-2.633252 -9,-3.955088 -2.475,-1.321835 -7.24164,-3.110006 -10.59253,-3.973714 -3.35089,-0.863707 -8.2657,-2.531675 -10.9218,-3.706596 -2.65636,-1.175034 -14.76329,-3.914027 -26.90747,-6.087373 -20.28687,-3.630575 -23.53864,-3.952183 -40.0782,-3.963832 -12.24898,-0.0086 -20.71576,0.494284 -26.5,1.574052 -4.675,0.872702 -14.125,2.495574 -21,3.606383 -6.875,1.110809 -15.23867,3.10431 -18.58594,4.430002 -3.34726,1.325693 -8.95547,3.153923 -12.46269,4.062734 -3.50721,0.908811 -8.19354,2.693534 -10.41406,3.966051 -2.22052,1.272517 -5.16231,2.638622 -6.53731,3.035788 -6.49025,1.874699 -7.67216,6.594297 -3.25638,13.003425 1.50899,2.190174 4.13212,6.682135 5.82917,9.982135 1.69705,3.3 4.68152,8.925 6.63215,12.5 1.95063,3.575 5.13211,9.425 7.06995,13 1.93784,3.575 5.66538,10.325 8.28344,15 6.87526,12.27699 11.94394,21.71367 15.03951,28 1.4896,3.025 3.60031,6.77991 4.69046,8.34424 1.09016,1.56434 3.15876,5.16434 4.5969,8 3.35457,6.61441 6.26142,7.79875 12.89617,5.25429 8.15662,-3.12811 11.32329,-3.63132 26.71863,-4.24582 17.30873,-0.69088 31.67762,0.72576 38.45962,3.79176 2.49721,1.12894 6.93246,2.89421 9.85612,3.92283 18.7543,6.59824 45.89896,33.39068 52.19717,51.51987 0.97203,2.79794 2.56187,6.62294 3.53298,8.5 3.26106,6.30328 4.49765,13.32145 5.09438,28.91283 0.66277,17.31692 -0.44093,28.06415 -3.86986,37.6824 -2.93913,8.24436 -2.04165,10.93888 4.76883,14.3176 2.77159,1.375 6.37159,3.4436 8,4.5969 1.62842,1.15329 5.43576,3.31886 8.46076,4.81238 3.025,1.49352 8.50472,4.37492 12.17715,6.4031 3.67243,2.02819 10.36799,5.71262 14.87903,8.18762 7.74089,4.24708 11.58424,6.34533 28.44382,15.52876 3.85,2.0971 9.7,5.2014 13,6.89845 3.3,1.69705 7.79196,4.32018 9.98213,5.82917 4.54,3.12798 8.04161,3.4846 10.68913,1.08863 z M 277.13497,330.583 c 12.94442,-4.49914 19.58027,-8.18809 28.36503,-15.76849 14.07052,-12.14148 21.87738,-24.99514 28.12984,-46.31451 2.02899,-6.91835 2.01667,-31.34888 -0.0189,-37.5 -4.02405,-12.15992 -7.83313,-21.43057 -9.98908,-24.31174 C 322.3097,204.93472 320.5462,202.15 319.70298,200.5 317.3924,195.97871 304.40842,183.62267 296.5,178.41918 c -6.28682,-4.13653 -14.19264,-7.59901 -27.5,-12.04408 -3.15661,-1.05441 -8.97798,-1.52395 -19.5,-1.57284 -13.21476,-0.0614 -15.71409,0.19805 -21,2.17992 -3.3,1.23728 -8.7,3.2481 -12,4.46848 -18.3821,6.79793 -37.95323,26.49427 -45.13975,45.42855 -6.39281,16.84306 -6.58148,17.79471 -6.5665,33.12079 0.0149,15.28532 0.26015,16.52537 6.52556,33 7.41904,19.50803 26.96842,38.87824 46.18069,45.75743 3.85,1.37853 9.25,3.33237 12,4.34185 4.01094,1.47236 7.96719,1.83937 20,1.85536 l 15,0.0199 12.63497,-4.39158 z M 241,283.08109 c -8.59344,-2.29826 -9.54896,-2.879 -16.18637,-9.83764 -4.35556,-4.56634 -6.08788,-7.31409 -7.46739,-11.84454 -2.28966,-7.51941 -2.28243,-15.29381 0.0213,-22.89891 1.50412,-4.96545 2.96542,-7.14732 8.47499,-12.65401 7.86839,-7.86428 11.63678,-9.31779 24.15748,-9.31779 12.5207,0 16.28909,1.45351 24.15748,9.31779 5.54272,5.53983 6.95601,7.65868 8.44031,12.65401 2.25836,7.60044 2.23768,15.3587 -0.0612,22.96379 -1.39089,4.60124 -3.08432,7.30736 -7.41206,11.84454 -6.64298,6.96448 -7.48744,7.46454 -16.60665,9.83397 -8.37492,2.17603 -9.16282,2.17328 -17.51784,-0.0612 z m 15.32881,-18.44512 c 10.27462,-4.293 12.77936,-17.7631 4.78884,-25.75362 -6.48655,-6.48655 -15.74875,-6.48655 -22.2353,0 -12.36655,12.36655 1.27866,32.50896 17.44646,25.75362 z m -79.27762,-87.64664 c 6.55717,-6.61916 12.19188,-13.10962 12.52157,-14.42322 0.64438,-2.56741 -2.06011,-9.63304 -5.5785,-14.57417 -1.14361,-1.60605 -3.67579,-5.97376 -5.62707,-9.70602 -1.95128,-3.73225 -5.02624,-9.48592 -6.83326,-12.78592 -1.80701,-3.3 -4.87098,-8.925 -6.80882,-12.5 -1.93784,-3.575 -5.66538,-10.325 -8.28344,-15 C 149.9692,86.442261 144.84562,76.886798 140.53676,68.337383 138.5513,64.397944 135.229,59.261546 133.15387,56.923166 127.80037,50.890535 128.1239,50.754093 104.74747,68.903225 100.21136,72.424999 91.325,80.550082 85,86.958965 73.26122,98.853425 55.56706,121.01409 53.59472,126.29183 c -1.03154,2.76027 -0.83618,3.15238 3.38483,6.79373 2.46376,2.12542 7.63876,5.47669 11.5,7.44728 3.86125,1.97059 10.62045,5.56877 15.02045,7.99594 4.4,2.42718 10.475,5.61469 13.5,7.08337 3.025,1.46867 6.175,3.24286 7,3.94264 0.825,0.69978 4.65,2.94562 8.5,4.99075 3.85,2.04513 10.15,5.43151 14,7.52529 3.85,2.09377 9.48985,5.08421 12.53301,6.64541 3.04315,1.5612 6.94796,3.84609 8.67736,5.07752 5.38107,3.83167 11.60268,6.27533 14.60416,5.73609 1.91455,-0.34397 6.62679,-4.35397 14.73666,-12.54052 z"
     id="path387"
     inkscape:connector-curvature="0" />
</svg>
