<?xml version="1.0" encoding="UTF-8" standalone="no"?>
<!-- Created with Inkscape (http://www.inkscape.org/) -->

<svg
   xmlns:dc="http://purl.org/dc/elements/1.1/"
   xmlns:cc="http://creativecommons.org/ns#"
   xmlns:rdf="http://www.w3.org/1999/02/22-rdf-syntax-ns#"
   xmlns:svg="http://www.w3.org/2000/svg"
   xmlns="http://www.w3.org/2000/svg"
   xmlns:sodipodi="http://sodipodi.sourceforge.net/DTD/sodipodi-0.dtd"
   xmlns:inkscape="http://www.inkscape.org/namespaces/inkscape"
   version="1.1"
   id="svg66"
   width="462.93335"
   height="533.33331"
   viewBox="0 0 462.93335 533.33331"
   sodipodi:docname="char-icon-3.svg"
   inkscape:version="0.92.4 (unknown)">

  <path
     style="stroke-width:1.0666666"
     d="m 25.6,530.86306 c 0,-1.74555 -1.17836,-3.13252 -4.01659,-4.7277 -5.1382,-2.88783 -11.49763,-9.24725 -14.38546,-14.38546 -1.59518,-2.83823 -2.98215,-4.01659 -4.7277,-4.01659 H 0 V 263.46666 19.199999 h 2.46134 c 1.70133,0 3.49623,-1.468221 5.81295,-4.754985 1.84339,-2.615243 5.04985,-5.8552425 7.12546,-7.2000002 2.46499,-1.5970303 3.77842,-3.2773859 3.78705,-4.8450139 L 19.2,0 h 221.86665 221.86666 v 7.8789336 7.8789334 l -3.46666,0.843995 c -1.90667,0.464197 -98.98667,1.118677 -215.73333,1.4544 -161.95853,0.465735 -212.79407,0.913149 -214.49199,1.887787 -1.22393,0.702561 -3.94891,3.185186 -6.05552,5.516944 -4.47696,4.955468 -5.70243,10.537251 -4.62412,21.062117 0.93837,9.159039 2.01182,11.165241 9.2489,17.285434 5.08382,4.299242 7.35534,5.446375 12.91257,6.520931 8.61797,1.66639 11.17215,3.360951 12.5513,8.327102 1.43437,5.164984 1.52389,405.272403 0.0921,411.448173 -1.18928,5.12962 -3.44859,6.96189 -8.58445,6.96189 -2.78834,0 -4.60292,-0.77282 -6.46279,-2.75245 L 35.73338,491.56173 35.20005,291.22602 C 34.68716,98.570068 34.59144,90.807154 32.70307,88.720681 c -1.08,-1.193306 -3.65707,-2.97323 -5.72681,-3.955388 -3.63353,-1.724224 -3.84148,-1.70743 -6.03636,0.487506 l -2.27318,2.273248 V 290.96302 494.39998 l 2.34689,4.38674 c 3.75343,7.01579 12.21363,13.93309 18.76009,15.33877 4.01602,0.86234 58.12884,1.10319 194.893,0.86748 178.71214,-0.30802 189.52699,-0.43216 192.7856,-2.21294 5.47199,-2.99036 10.78936,-8.13122 13.92183,-13.45968 l 2.89257,-4.92037 0.28297,-200.12836 c 0.26852,-189.91245 0.18685,-200.246741 -1.6,-202.447748 L 441.0667,89.504469 313.02001,89.285565 C 194.05054,89.082181 184.77527,88.936897 182.17938,87.236139 c -5.07729,-3.326502 -4.82626,-11.902647 0.43627,-14.90462 3.50937,-2.001895 258.42024,-2.722837 271.51771,-0.76791 l 8.8,1.313486 V 290.3052 507.73331 h -2.63927 c -1.87522,0 -3.13659,0.9617 -4.35714,3.32198 -2.50779,4.84953 -9.75358,12.36354 -14.48827,15.02458 -2.92547,1.64421 -4.11532,3.02715 -4.11532,4.78319 v 2.47025 H 231.4667 25.60005 Z M 130.46218,337.0649 c -5.91053,-2.40223 -5.72979,0.27829 -5.41697,-80.33939 0.3213,-82.80306 -0.28419,-76.75329 7.87136,-78.64522 5.24164,-1.21596 190.23537,-1.23915 196.5212,-0.0246 8.81457,1.7031 8.12692,-4.72291 8.44998,78.9647 l 0.28777,74.54495 -2.59522,3.01734 -2.59521,3.01735 -100.09255,0.20754 c -56.63282,0.11742 -101.10762,-0.20503 -102.43036,-0.74263 z m 187.40447,-19.19825 c 2.08099,-2.08099 2.13333,-3.55555 2.13333,-60.10134 0,-55.48608 -0.0863,-58.04612 -2.01573,-59.79223 -1.86617,-1.68886 -8.28563,-1.82421 -86.5176,-1.82421 -78.23196,0 -84.65142,0.13535 -86.51759,1.82421 -1.92943,1.74611 -2.01573,4.30615 -2.01573,59.79223 0,56.54579 0.0524,58.02035 2.13333,60.10134 2.09732,2.09733 3.55555,2.13334 86.39999,2.13334 82.84445,0 84.30268,-0.0361 86.4,-2.13334 z M 183.46666,283.43731 c -5.20817,-2.66871 -6.47907,-9.07127 -2.79963,-14.10399 1.51314,-2.06966 2.97001,-2.14227 48.81302,-2.43275 32.99887,-0.20909 48.12064,0.0598 50.12846,0.89151 5.47263,2.26684 6.45892,10.29726 1.7845,14.5294 -2.00007,1.81084 -5.36369,1.96372 -48.70407,2.21372 -36.17813,0.20868 -47.15003,-0.0361 -49.22228,-1.09789 z m 2.28201,-34.90258 c -5.0733,-1.1986 -7.03353,-3.5772 -7.03353,-8.53474 0,-8.56266 3.63127,-9.54911 35.15152,-9.54911 31.4276,0 34.66666,0.89221 34.66666,9.54911 0,5.11805 -1.83687,7.3783 -6.9619,8.56652 -5.12117,1.18732 -50.77262,1.16133 -55.82275,-0.0318 z M 77.1808,158.94231 c -5.75236,-2.32137 -5.71414,-1.96423 -5.71414,-53.39372 V 57.971867 l -2.4,-2.234547 c -2.11585,-1.96999 -3.95844,-2.276148 -15.56323,-2.585935 -12.33566,-0.329296 -13.29128,-0.509703 -15.2,-2.869557 -3.65174,-4.514854 -2.54333,-11.013494 2.30619,-13.52128 3.78789,-1.958792 37.14354,-2.232826 42.54595,-0.349537 6.20643,2.163574 6.44442,3.88239 6.44442,46.541392 0,39.599837 0.12714,40.780927 4.38981,40.780927 1.00639,0 4.59793,-3.15294 7.98119,-7.00654 11.35744,-12.9363 15.47505,-13.08441 26.91231,-0.96804 13.21617,14.0009 13.15413,14.16065 13.35467,-34.394134 0.17964,-43.499041 0.1259,-43.156815 7.09536,-45.178703 2.46852,-0.716135 52.20997,-0.976265 146.82147,-0.767824 136.73064,0.301236 143.18363,0.401667 145.23739,2.260412 4.56922,4.135337 3.73903,12.056128 -1.51449,14.449795 -1.9214,0.875448 -39.79594,1.205035 -138.4764,1.205035 -127.80299,0 -135.96342,0.110334 -138.06119,1.866667 -2.19257,1.835689 -2.23447,2.663228 -2.52476,49.866662 -0.16235,26.4 -0.71039,48.85775 -1.21787,49.90612 -1.44323,2.98151 -6.76153,5.26318 -10.40338,4.4633 -2.1517,-0.47259 -7.30176,-4.83603 -15.88978,-13.4628 -17.68397,-17.76374 -16.51231,-17.72449 -33.33042,-1.11684 -11.27397,11.1329 -16.80701,15.35077 -19.77668,15.07594 -0.4018,-0.0372 -1.7592,-0.48272 -3.01642,-0.99007 z"
     id="path76"
     inkscape:connector-curvature="0" />
</svg>
