<?xml version="1.0" encoding="UTF-8" standalone="no"?>
<!-- Created with Inkscape (http://www.inkscape.org/) -->

<svg
   xmlns:dc="http://purl.org/dc/elements/1.1/"
   xmlns:cc="http://creativecommons.org/ns#"
   xmlns:rdf="http://www.w3.org/1999/02/22-rdf-syntax-ns#"
   xmlns:svg="http://www.w3.org/2000/svg"
   xmlns="http://www.w3.org/2000/svg"
   xmlns:sodipodi="http://sodipodi.sourceforge.net/DTD/sodipodi-0.dtd"
   xmlns:inkscape="http://www.inkscape.org/namespaces/inkscape"
   version="1.1"
   id="svg356"
   width="533.33331"
   height="533.33331"
   viewBox="0 0 533.33331 533.33331"
   sodipodi:docname="char-icon-5.svg"
   inkscape:version="0.92.4 (unknown)">

  <path
     style="stroke-width:1.0666666"
     d="m 21.14085,531.01606 c -0.19053,-1.29527 -2.4345,-3.78829 -5.08809,-5.65277 -2.61097,-1.83453 -6.24821,-5.47177 -8.08275,-8.08275 C 6.10554,514.62695 3.61253,512.38299 2.31724,512.19246 0.01123,511.85326 0,511.7253 0,485.79246 c 0,-22.75221 0.20843,-26.05915 1.64249,-26.05915 0.90337,0 3.52425,-0.96 5.82417,-2.13333 3.0203,-1.54084 6.28669,-2.13333 11.76097,-2.13333 13.55669,0 14.9487,-3.27957 6.0841,-14.33408 -6.78156,-8.45688 -14.21608,-25.30942 -15.70425,-35.59834 -2.48504,-17.18099 -0.91972,-30.32831 5.41627,-45.49211 7.65577,-18.3224 21.53725,-33.75184 39.53883,-43.94789 11.25612,-6.37545 29.60981,-10.44925 43.03741,-9.55264 11.58664,0.77368 29.63435,5.02447 33.51549,7.89392 1.54914,1.14533 4.7749,3.08146 7.16834,4.3025 12.31555,6.28293 26.62079,22.64452 34.39955,39.34446 5.88898,12.64285 7.54732,25.65108 5.72022,44.87028 -1.0928,11.49513 -1.5978,13.37291 -6.20289,23.06534 -2.75728,5.8033 -6.56116,12.2833 -8.45304,14.4 -6.04561,6.76403 -7.1861,10.39107 -4.20481,13.37236 1.47195,1.47195 7.27691,1.6762 47.63962,1.6762 h 45.96342 l 4.48075,2.6259 c 4.82979,2.83043 7.54122,7.56113 6.39807,11.16284 -0.38625,1.21698 -2.43225,3.53237 -4.54667,5.1453 l -3.84442,2.93262 -114.26427,0.53334 c -106.30588,0.49619 -114.46181,0.66278 -117.1003,2.39192 -6.12248,4.01238 -4.29902,17.82909 3.36437,25.49248 7.84969,7.8497 -8.05765,7.31742 218.16017,7.29987 162.91365,-0.0126 203.26356,-0.28471 205.40639,-1.38505 2.65508,-1.36339 2.66535,-1.427 2.36409,-14.65095 -0.24701,-10.84272 -0.65979,-13.77128 -2.24788,-15.94827 l -1.9453,-2.66667 -54.28545,-0.55781 c -29.857,-0.3068 -54.43252,-0.6668 -54.61225,-0.8 -0.17973,-0.13321 -1.73973,-1.78917 -3.46667,-3.67991 -4.44225,-4.86365 -4.17159,-8.58154 1.00131,-13.75444 l 4.14118,-4.14117 h 60.97845 c 67.73239,0 64.92949,-0.28905 69.56954,7.17414 2.26585,3.64445 2.52228,5.37687 2.7067,18.28639 0.18539,12.97633 0.45428,14.77265 2.98602,19.94733 2.36852,4.84107 3.65513,6.11382 8.65162,8.55837 5.33124,2.60833 6.25706,2.75545 10.09834,1.60457 2.32595,-0.69687 5.85137,-2.6915 7.83426,-4.4325 7.55159,-6.63038 6.98692,10.08903 7.12146,-210.86088 l 0.1213,-199.210741 -2.23007,-6.329961 c -6.78407,-19.256291 -16.33132,-23.430039 -52.16664,-22.805562 -18.595,0.324043 -19.34642,0.42254 -21.95762,2.87825 -1.80252,1.695175 -3.09258,4.539533 -3.87029,8.533333 -2.08963,10.73076 -5.19527,17.690116 -9.93302,22.258731 -8.53518,8.23049 -18.01584,10.96644 -28.57107,8.24511 -8.37284,-2.15865 -12.69076,-4.7296 -16.92739,-10.07879 -3.70922,-4.683268 -5.77552,-9.950672 -6.91214,-17.62039 -0.43355,-2.925605 -1.49371,-6.683418 -2.35589,-8.350696 -3.19125,-6.171184 -1.63211,-6.063357 -87.67349,-6.063357 -91.94984,0 -82.82222,-1.364125 -85.06215,12.712567 -2.23743,14.061034 -9.1559,23.993036 -19.42129,27.880766 -12.41187,4.70066 -25.68937,2.20867 -34.02304,-6.38561 -6.36787,-6.567027 -7.4948,-9.00271 -8.73257,-18.874153 -0.58224,-4.643493 -1.38411,-9.29091 -1.78192,-10.327593 -1.56021,-4.065803 -5.9531,-5.005977 -23.39011,-5.005977 -27.18609,0 -37.75976,3.232171 -44.29734,13.540865 -5.58266,8.802939 -6.79011,14.256801 -6.85329,30.955238 -0.0545,14.39331 0.0659,15.28645 2.37212,17.6 l 2.42949,2.43723 186.3705,0.53333 c 138.33987,0.39588 186.92338,0.85149 188.51577,1.76787 6.74753,3.88299 7.8789,11.58507 2.31004,15.72617 l -3.01136,2.23929 -186.32197,0.53334 c -148.56648,0.42526 -186.80574,0.80975 -188.70937,1.89745 -1.31307,0.75027 -2.69941,2.60724 -3.08075,4.12661 -0.38133,1.51937 -0.747,28.74551 -0.81259,60.50255 -0.10816,52.36636 -0.28931,58.05065 -1.94647,61.07746 -2.10441,3.8437 -3.73055,4.66259 -9.25889,4.66259 -4.39789,0 -8.245,-2.79841 -9.2056,-6.69619 -0.32131,-1.30376 -0.44712,-45.37292 -0.27958,-97.93147 l 0.30462,-95.560982 4.8,-9.345105 C 46.96273,62.74886 54.74394,55.438792 67.81015,49.640992 l 9.52318,-4.225671 25.29849,-0.574329 c 21.87692,-0.49665 25.54285,-0.819127 27.10525,-2.38434 1.30233,-1.304673 2.01731,-4.593846 2.5609,-11.781061 0.88319,-11.677289 2.16931,-14.58445 9.47555,-21.4185802 2.98456,-2.791708 5.42647,-6.0165978 5.42647,-7.1664218 C 147.19999,0.1103671 148.01652,0 162.66666,0 c 15.32448,0 15.46678,0.022063 15.47987,2.3999999 0.009,1.54608 1.29469,3.2297858 3.6149,4.7321698 1.98093,1.2826934 5.44778,5.3626933 7.70411,9.0666663 3.60845,5.92359 4.18792,7.821135 4.81253,15.758917 0.59187,7.521793 1.10264,9.342268 3.06752,10.933333 2.21877,1.796651 7.12101,1.908912 83.35887,1.908912 69.00495,0 81.44841,-0.231121 84.01924,-1.560549 3.59717,-1.86017 4.34295,-3.511168 4.34295,-9.614333 0,-2.530221 1.0079,-7.890964 2.23979,-11.91276 1.89406,-6.183642 3.1289,-8.138573 8,-12.6649878 3.16811,-2.943947 5.76021,-6.1839469 5.76021,-7.1999996 C 385.06665,0.180258 386.57582,0 400.53332,0 c 15.44259,0 15.46666,0.00383 15.46666,2.4613327 0,1.6955873 1.45659,3.488026 4.68189,5.7614296 3.98339,2.8077557 5.17691,4.5837517 8,11.9042567 2.09804,5.440405 3.31811,10.53443 3.31811,13.853733 0,3.576876 0.64912,6.05195 2.0372,7.767743 2.02294,2.500562 2.2299,2.522061 29.59999,3.074744 l 27.56281,0.556573 9.46254,4.243426 c 11.53835,5.174313 21.38391,13.687105 25.16389,21.757525 1.98441,4.236803 3.0803,5.419234 5.02257,5.419234 h 2.48433 V 294.39999 511.99998 l -2.4,0.0196 c -1.68926,0.0139 -3.34766,1.51429 -5.6,5.06667 -1.80264,2.84313 -5.4039,6.44438 -8.24703,8.24703 -3.55238,2.25234 -5.05284,3.91074 -5.06667,5.6 l -0.0196,2.40001 H 266.74084 21.48171 Z m 84.68433,-77.0588 c 9.13312,-1.29426 11.38573,-2.07449 19.04164,-6.59533 12.17007,-7.18646 23.02006,-18.98438 27.65593,-30.07211 7.73516,-18.50046 8.09545,-30.85783 1.39042,-47.68984 -6.50509,-16.33004 -16.78111,-27.51963 -32.774,-35.68771 -9.29707,-4.7483 -9.32593,-4.75493 -22.60092,-5.19687 -16.3727,-0.54508 -24.2034,0.88002 -33.20477,6.04286 -21.06779,12.0837 -33.12546,30.68488 -35.11121,54.16556 -0.91433,10.81159 4.03315,27.7194 11.16186,38.14529 4.86895,7.12092 15.30662,17.73087 17.44297,17.73087 0.58036,0 3.06167,1.35919 5.51404,3.02042 5.82345,3.9448 7.13895,4.40445 17.25885,6.03052 11.27941,1.81239 12.15896,1.81625 24.22519,0.10635 z M 78.4,424.37176 C 73.75601,421.83929 54.46781,401.67032 53.80532,398.654 c -1.81695,-8.27248 7.29986,-15.23294 14.79813,-11.29802 1.28144,0.67247 4.55649,3.07247 7.27791,5.33334 2.72142,2.26086 6.07579,4.11066 7.45416,4.11066 1.80758,0 7.00508,-4.49193 18.64673,-16.1154 15.09233,-15.06877 16.44404,-16.14931 20.81251,-16.63736 3.64448,-0.40717 5.28623,-0.0371 7.46538,1.68282 3.27434,2.58428 4.53471,7.46684 2.99538,11.60374 -1.25673,3.37741 -41.67442,44.44104 -46.00255,46.73775 -3.40481,1.80674 -5.93313,1.89248 -8.85297,0.30023 z M 168.25453,86.901881 c 1.28107,-0.897297 2.8252,-3.417297 3.43139,-5.6 1.47064,-5.295251 1.45124,-47.206462 -0.0237,-51.099109 -3.19937,-8.444063 -9.55059,-10.127799 -15.55475,-4.123634 l -3.67914,3.679139 0.31914,26.814866 0.31914,26.814867 2.99281,2.572659 c 3.46162,2.975645 8.71197,3.380866 12.19506,0.941212 z m 238.78013,-0.613872 c 1.88984,-2.088249 2.03199,-4.208848 2.03199,-30.314064 V 27.905202 L 406.48072,25.1526 c -5.21341,-5.549408 -13.78032,-2.254678 -15.4171,5.929226 -1.09925,5.496269 -0.73413,47.021501 0.45097,51.288667 1.32016,4.753454 3.30437,6.087214 9.12007,6.1304 3.11446,0.02313 4.95117,-0.611938 6.4,-2.212884 z M 298.78406,475.31144 c -3.03816,-1.68393 -5.36069,-5.55334 -5.41294,-9.01813 -0.0522,-3.45983 6.41996,-9.76 10.02639,-9.76 7.02231,0 11.58648,7.42281 8.74531,14.22267 -2.42569,5.80551 -7.79803,7.63754 -13.35876,4.55546 z m -76.47458,-82.10231 c -10.93185,-4.0642 -15.6669,-8.37793 -22.17463,-20.20151 -6.79729,-12.34965 -6.16978,-24.72092 1.87316,-36.92933 6.836,-10.37639 13.71916,-15.51613 23.77555,-17.75346 8.6748,-1.92996 15.19374,-1.63725 24.39446,1.09536 7.30782,2.17042 16.89816,11.46368 21.68019,21.0086 3.39879,6.78401 3.53845,7.53513 3.18164,17.11219 -0.34367,9.22432 -0.66853,10.50879 -4.10653,16.23662 -5.99661,9.99062 -12.81683,15.97305 -21.87665,19.18936 -9.79312,3.47663 -17.85097,3.54959 -26.74719,0.24217 z m 23.31985,-22.01304 c 3.07575,-2.41938 8.24245,-12.09396 8.22732,-15.40553 -0.0163,-3.57221 -6.21621,-13.31582 -9.90343,-15.56405 -2.056,-1.25361 -5.33419,-2.08521 -8.2199,-2.08521 -2.8857,0 -6.16389,0.8316 -8.21989,2.08521 -3.80279,2.31869 -9.8879,12.03242 -9.90343,15.80893 -0.0145,3.52905 4.78416,12.45227 8.09848,15.05932 4.00333,3.14901 15.96898,3.20987 19.92085,0.10133 z m 72.92138,21.57514 c -8.48777,-3.13796 -15.05588,-9.08496 -20.95072,-18.96957 -3.66294,-6.14208 -3.73334,-6.48211 -3.73334,-18.0309 v -11.77078 l 4.67029,-7.1821 c 6.71576,-10.32769 14.30231,-16.23127 23.5661,-18.33827 9.24555,-2.10286 12.16068,-2.10005 21.48488,0.0207 10.31711,2.34658 18.18375,8.88342 24.53346,20.38626 4.37821,7.93136 4.58717,8.71786 4.63183,17.43348 0.0459,8.94505 -0.0513,9.29671 -4.86428,17.60366 -11.05708,19.08406 -29.56969,26.156 -49.33822,18.84752 z m 24.69215,-22.07996 c 4.06421,-3.4198 8.09443,-12.65043 7.16811,-16.41751 -1.20176,-4.88727 -5.92277,-11.93237 -9.42846,-14.06997 -4.44292,-2.70907 -11.93913,-2.6987 -16.40242,0.0227 -3.92827,2.3952 -9.88864,12.07734 -9.90343,16.08733 -0.0136,3.68512 6.29877,13.98121 9.58999,15.64222 1.46667,0.74019 5.62984,1.35288 9.25149,1.36153 5.46487,0.013 7.11887,-0.43364 9.72472,-2.62632 z m 73.32113,22.34063 c -8.51586,-3.03593 -14.52116,-8.17746 -20.89514,-17.88971 -4.66551,-7.10898 -5.94964,-13.77263 -4.77243,-24.76527 0.6213,-5.80155 1.5368,-8.127 5.56186,-14.12747 7.19773,-10.73023 13.83122,-15.78273 23.56435,-17.94814 8.67238,-1.92943 15.11749,-1.60496 24.70995,1.24398 4.58577,1.36196 7.15256,3.09633 12.26666,8.28853 3.55707,3.61139 7.90741,9.44617 9.66741,12.96617 2.80261,5.60522 3.2,7.52593 3.2,15.46666 0,8.67988 -0.19337,9.4135 -4.53277,17.19696 -2.49303,4.47167 -6.612,10.04687 -9.15327,12.38933 -9.89683,9.12257 -25.98639,12.03818 -39.61662,7.17896 z m 22.93198,-21.5163 c 3.8331,-2.64186 5.06022,-4.47881 7.0103,-10.49407 1.68319,-5.19203 1.66268,-5.56662 -0.59207,-10.80792 -3.38333,-7.86477 -7.29085,-11.20283 -13.852,-11.83327 -3.00257,-0.2885 -6.73435,0.0487 -8.46303,0.76475 -4.19822,1.73896 -11.86585,12.23444 -11.86585,16.242 0,5.11213 5.32593,13.9787 9.95625,16.57509 3.55397,1.99285 14.67156,1.71403 17.8064,-0.44658 z M 126.20324,285.47885 c -9.28006,-2.36371 -16.95218,-9.08373 -23.30424,-20.41219 -3.99951,-7.13287 -4.1877,-7.89584 -4.20951,-17.06667 -0.022,-9.24011 0.13558,-9.87888 4.20264,-17.03902 6.16317,-10.85038 12.74132,-16.66977 22.77032,-20.14389 10.61635,-3.67759 16.16835,-3.60005 26.47786,0.36979 9.44953,3.63869 14.23717,7.75546 20.88437,17.95797 4.01163,6.1573 4.44821,7.51154 4.89179,15.17425 0.2707,4.67616 -0.068,10.61805 -0.76254,13.37621 -2.48828,9.88187 -13.6261,22.69742 -23.24498,26.74646 -5.36495,2.25836 -20.66274,2.83098 -27.70571,1.03709 z m 21.26202,-21.99191 c 3.70817,-2.91684 9.33473,-11.94425 9.33473,-14.97689 0,-3.60269 -3.74065,-10.80698 -7.46287,-14.37309 -4.15959,-3.98514 -13.41376,-4.91463 -19.20379,-1.92883 -4.91757,2.53588 -9.98972,12.04009 -9.18841,17.21725 0.69853,4.513 6.32977,13.3647 9.46432,14.87687 4.21315,2.03251 14.03231,1.56315 17.05602,-0.81531 z m 75.89927,21.94546 c -6.09434,-1.47943 -9.85298,-3.88231 -15.4489,-9.8764 -13.19089,-14.12947 -16.07845,-30.95145 -7.71072,-44.91999 6.08237,-10.15348 12.45426,-15.82098 21.86953,-19.45189 10.70296,-4.12749 16.35413,-4.12192 27.21867,0.0269 9.36997,3.57806 15.2202,8.73825 21.72735,19.16463 3.57662,5.73079 3.64619,6.06664 3.64619,17.6 v 11.75771 l -4.35841,6.89183 c -6.17112,9.75824 -14.32249,16.58333 -22.28188,18.65649 -7.44942,1.94032 -17.04824,1.99901 -24.66183,0.15076 z m 23.00063,-23.93377 c 4.1957,-4.41059 7.51568,-10.47475 7.47843,-13.65985 -0.0487,-4.17056 -5.94307,-13.66892 -9.66241,-15.57047 -7.56281,-3.86657 -18.45133,-1.55395 -22.28986,4.73415 -5.79924,9.50007 -5.12865,15.85972 2.51329,23.8353 4.46107,4.65583 4.7138,4.76223 11.31103,4.76223 6.43976,0 6.92622,-0.18735 10.64952,-4.10136 z m 73.72149,23.80855 c -7.44646,-2.08999 -15.35879,-8.80465 -21.52529,-18.26706 -4.44865,-6.8264 -4.7145,-7.67003 -5.07249,-16.09585 -0.50094,-11.79049 0.17038,-14.72416 5.08404,-22.21735 6.34235,-9.67189 11.38249,-13.93162 20.75342,-17.54005 10.75524,-4.14147 16.4227,-4.1329 27.24659,0.0413 6.6687,2.57172 9.43765,4.36109 13.6175,8.8 14.44395,15.33918 16.80339,31.06358 7.03561,46.88864 -4.81385,7.79906 -13.54022,15.91288 -19.06065,17.7227 -6.66539,2.18518 -21.42184,2.53609 -28.07873,0.66773 z m 24.04205,-24.46942 c 7.64194,-7.97558 8.31253,-14.33523 2.51329,-23.8353 -3.78166,-6.19494 -14.25948,-8.52913 -21.93545,-4.88663 -4.19049,1.98851 -10.03989,11.26413 -10.03989,15.92062 0,3.42791 5.38808,12.34606 9.33473,15.45049 2.00389,1.57626 4.32205,2.11305 9.1253,2.11305 6.23136,0 6.58614,-0.15357 11.00202,-4.76223 z m 74.7409,24.99267 c -8.1501,-2.05287 -16.05383,-8.17181 -22.14905,-17.14742 -8.83532,-13.01057 -8.51479,-30.06644 0.79983,-42.56058 6.65202,-8.92266 9.8963,-11.47764 19.09417,-15.03729 6.99706,-2.7079 9.55387,-3.19138 14.8521,-2.8084 14.38847,1.04006 25.5813,8.36001 33.6,21.97395 4.72968,8.02992 4.8,8.28994 4.8,17.7493 0,9.46236 -0.0688,9.71655 -4.8,17.72909 -5.42735,9.19154 -13.89029,17.27895 -19.96975,19.08363 -5.55338,1.64853 -21.29749,2.25945 -26.2273,1.01772 z m 19.237,-21.62481 c 3.25239,-1.80725 7.56851,-7.87509 8.8164,-12.39457 1.97637,-7.15786 -2.71827,-17.23158 -9.31489,-19.98783 -5.16329,-2.15735 -14.33656,-1.45974 -17.48634,1.32983 -3.99212,3.53557 -8.38845,11.3647 -8.38845,14.93843 0,3.46821 7.82164,15.56613 10.84369,16.7722 2.73571,1.09179 13.17675,0.64935 15.52959,-0.65806 z m 35.27778,-114.92378 c -2.84371,-2.84372 -3.17918,-3.79051 -2.675,-7.54946 0.81994,-6.11318 3.2674,-8.39905 8.99271,-8.39905 6.26561,0 8.5252,1.38817 9.80514,6.02374 2.91433,10.55483 -8.47923,17.56838 -16.12285,9.92477 z"
     id="path366"
     inkscape:connector-curvature="0" />
</svg>
